<?xml version="1.0" standalone="no"?>
<!DOCTYPE svg PUBLIC "-//W3C//DTD SVG 20010904//EN"
 "http://www.w3.org/TR/2001/REC-SVG-20010904/DTD/svg10.dtd">
<svg version="1.0" xmlns="http://www.w3.org/2000/svg"
 width="260.000000pt" height="260.000000pt" viewBox="0 0 260.000000 260.000000"
 preserveAspectRatio="xMidYMid meet">
<metadata>
Created by potrace 1.11, written by Peter Selinger 2001-2013
</metadata>
<g transform="translate(0.000000,260.000000) scale(0.100000,-0.100000)"
fill="#000000" stroke="none">
<path d="M135 2571 c-53 -24 -83 -55 -106 -105 -18 -39 -19 -90 -19 -1162 l0
-1122 28 -53 c22 -43 38 -59 81 -81 l54 -28 1126 0 1126 0 51 30 c41 23 57 41
78 82 l26 52 0 1109 c0 770 -3 1121 -11 1152 -12 49 -55 97 -110 126 -36 18
-76 19 -1161 19 -1074 0 -1125 -1 -1163 -19z"/>
</g>
</svg>
